<?xml version="1.0" encoding="UTF-8" standalone="no"?><!DOCTYPE svg PUBLIC "-//W3C//DTD SVG 1.1//EN" "http://www.w3.org/Graphics/SVG/1.1/DTD/svg11.dtd"><svg width="100%" height="100%" viewBox="0 0 300 300" version="1.1" xmlns="http://www.w3.org/2000/svg" xmlns:xlink="http://www.w3.org/1999/xlink" xml:space="preserve" xmlns:serif="http://www.serif.com/" style="fill-rule:evenodd;clip-rule:evenodd;stroke-linecap:round;stroke-linejoin:round;stroke-miterlimit:1.5;"><rect x="0.501" y="0.499" width="298.994" height="298.998" style="fill:none;stroke:#000;stroke-width:1px;"/><rect x="0.501" y="0.499" width="298.994" height="298.998" style="fill:#fff;"/><rect x="99.31" y="-5.549" width="3.73" height="171.607" style="stroke:#000;stroke-opacity:0;stroke-width:4.17px;"/><rect x="155.013" y="-3.002" width="3.73" height="308.84" style="stroke:#000;stroke-opacity:0;stroke-width:4.17px;"/><rect x="36.605" y="110.358" width="3.73" height="195.479" style="stroke:#000;stroke-opacity:0;stroke-width:4.17px;"/><rect x="218.992" y="68.318" width="3.73" height="151.944" style="stroke:#000;stroke-opacity:0;stroke-width:4.17px;"/><path d="M-9.983,69.477l319.966,0l0,3.73l-319.966,0l-0,-3.73Z" style="stroke:#000;stroke-opacity:0;stroke-width:4.17px;"/><path d="M60.598,129l141.352,-0l0,3.73l-141.352,-0l-0,-3.73Z" style="stroke:#000;stroke-opacity:0;stroke-width:4.17px;"/><path d="M107.707,189.159l125.437,-0l-0,3.73l-125.437,-0l-0,-3.73Z" style="stroke:#000;stroke-opacity:0;stroke-width:4.17px;"/><path d="M-6.733,216.533l319.966,-0l0,3.73l-319.966,-0l0,-3.73Z" style="stroke:#000;stroke-opacity:0;stroke-width:4.17px;"/></svg>