<?xml version="1.0" encoding="UTF-8" ?>
<svg version="1.1" width="32" height="32" xmlns="http://www.w3.org/2000/svg" shape-rendering="crispEdges">
<rect x="0" y="0" width="8" height="4" fill="#FFFFFF" />
<rect x="8" y="0" width="4" height="4" fill="#000000" />
<rect x="12" y="0" width="8" height="4" fill="#FFFFFF" />
<rect x="20" y="0" width="12" height="4" fill="#000000" />
<rect x="0" y="4" width="4" height="28" fill="#FFFFFF" />
<rect x="4" y="4" width="4" height="4" fill="#000000" />
<rect x="8" y="4" width="8" height="4" fill="#FFFFFF" />
<rect x="16" y="4" width="4" height="16" fill="#000000" />
<rect x="20" y="4" width="8" height="4" fill="#FFFFFF" />
<rect x="28" y="4" width="4" height="28" fill="#000000" />
<rect x="4" y="8" width="8" height="4" fill="#FFFFFF" />
<rect x="12" y="8" width="4" height="4" fill="#000000" />
<rect x="20" y="8" width="8" height="4" fill="#000000" />
<rect x="4" y="12" width="4" height="4" fill="#000000" />
<rect x="8" y="12" width="8" height="4" fill="#FFFFFF" />
<rect x="20" y="12" width="4" height="8" fill="#000000" />
<rect x="24" y="12" width="4" height="4" fill="#FFFFFF" />
<rect x="4" y="16" width="4" height="16" fill="#FFFFFF" />
<rect x="8" y="16" width="8" height="4" fill="#000000" />
<rect x="24" y="16" width="4" height="16" fill="#000000" />
<rect x="8" y="20" width="4" height="4" fill="#000000" />
<rect x="12" y="20" width="12" height="4" fill="#FFFFFF" />
<rect x="8" y="24" width="8" height="8" fill="#FFFFFF" />
<rect x="16" y="24" width="8" height="8" fill="#000000" />
</svg>