<?xml version="1.0" encoding="UTF-8" ?>
<svg version="1.1" width="32" height="32" xmlns="http://www.w3.org/2000/svg" shape-rendering="crispEdges">
<rect x="0" y="0" width="4" height="4" fill="#E0F5F9" />
<rect x="4" y="0" width="4" height="4" fill="#E0EEF1" />
<rect x="8" y="0" width="4" height="4" fill="#E1EFF2" />
<rect x="12" y="0" width="4" height="4" fill="#A5C5D2" />
<rect x="16" y="0" width="4" height="4" fill="#FCC04B" />
<rect x="20" y="0" width="4" height="4" fill="#FAD852" />
<rect x="24" y="0" width="4" height="4" fill="#F9EA97" />
<rect x="28" y="0" width="4" height="4" fill="#F9FCBE" />
<rect x="0" y="4" width="4" height="4" fill="#C0E6F2" />
<rect x="4" y="4" width="4" height="4" fill="#C0E0E8" />
<rect x="8" y="4" width="4" height="4" fill="#89C8D9" />
<rect x="12" y="4" width="4" height="4" fill="#75A4B4" />
<rect x="16" y="4" width="4" height="4" fill="#F6A21C" />
<rect x="20" y="4" width="4" height="4" fill="#FBC711" />
<rect x="24" y="4" width="4" height="4" fill="#F8DF4B" />
<rect x="28" y="4" width="4" height="4" fill="#F8F07B" />
<rect x="0" y="8" width="4" height="4" fill="#96D7E9" />
<rect x="4" y="8" width="4" height="4" fill="#96D0DE" />
<rect x="8" y="8" width="4" height="4" fill="#4CB2CB" />
<rect x="12" y="8" width="4" height="4" fill="#49819C" />
<rect x="16" y="8" width="4" height="4" fill="#EF781A" />
<rect x="20" y="8" width="4" height="4" fill="#F7A319" />
<rect x="24" y="8" width="4" height="4" fill="#FBD218" />
<rect x="28" y="8" width="4" height="4" fill="#FBDE4F" />
<rect x="0" y="12" width="4" height="4" fill="#66C8E0" />
<rect x="4" y="12" width="4" height="4" fill="#66BED6" />
<rect x="8" y="12" width="4" height="4" fill="#1596B9" />
<rect x="12" y="12" width="4" height="4" fill="#326381" />
<rect x="16" y="12" width="4" height="4" fill="#E85720" />
<rect x="20" y="12" width="4" height="4" fill="#F3831F" />
<rect x="24" y="12" width="4" height="4" fill="#FAB617" />
<rect x="28" y="12" width="4" height="4" fill="#FAD03A" />
<rect x="0" y="16" width="4" height="4" fill="#3AB5D5" />
<rect x="4" y="16" width="4" height="4" fill="#3AADCA" />
<rect x="8" y="16" width="4" height="4" fill="#057CA7" />
<rect x="12" y="16" width="4" height="4" fill="#244B68" />
<rect x="16" y="16" width="4" height="4" fill="#E32C24" />
<rect x="20" y="16" width="4" height="4" fill="#ED641F" />
<rect x="24" y="16" width="4" height="4" fill="#F59D18" />
<rect x="28" y="16" width="4" height="4" fill="#F5B952" />
<rect x="0" y="20" width="4" height="4" fill="#09A5C6" />
<rect x="4" y="20" width="4" height="4" fill="#0999BB" />
<rect x="8" y="20" width="4" height="4" fill="#046590" />
<rect x="12" y="20" width="4" height="4" fill="#1D3750" />
<rect x="16" y="20" width="4" height="4" fill="#C82B26" />
<rect x="20" y="20" width="4" height="4" fill="#E54523" />
<rect x="24" y="20" width="4" height="4" fill="#F27D1E" />
<rect x="28" y="20" width="4" height="4" fill="#F2A443" />
<rect x="0" y="24" width="4" height="4" fill="#0290B7" />
<rect x="4" y="24" width="4" height="4" fill="#0280A5" />
<rect x="8" y="24" width="4" height="4" fill="#064C70" />
<rect x="12" y="24" width="4" height="4" fill="#182439" />
<rect x="16" y="24" width="4" height="4" fill="#A4231D" />
<rect x="20" y="24" width="4" height="4" fill="#DD2C26" />
<rect x="24" y="24" width="4" height="4" fill="#EC5A21" />
<rect x="28" y="24" width="4" height="4" fill="#EC8721" />
<rect x="0" y="28" width="4" height="4" fill="#046399" />
<rect x="4" y="28" width="4" height="4" fill="#04567B" />
<rect x="8" y="28" width="4" height="4" fill="#05324F" />
<rect x="12" y="28" width="4" height="4" fill="#141823" />
<rect x="16" y="28" width="4" height="4" fill="#731B19" />
<rect x="20" y="28" width="4" height="4" fill="#A8221F" />
<rect x="24" y="28" width="4" height="4" fill="#E32E27" />
<rect x="28" y="28" width="4" height="4" fill="#E64641" />
</svg>