<?xml version="1.0" encoding="UTF-8" standalone="no"?><!DOCTYPE svg PUBLIC "-//W3C//DTD SVG 1.1//EN" "http://www.w3.org/Graphics/SVG/1.1/DTD/svg11.dtd"><svg width="100%" height="100%" viewBox="0 0 300 300" version="1.1" xmlns="http://www.w3.org/2000/svg" xmlns:xlink="http://www.w3.org/1999/xlink" xml:space="preserve" xmlns:serif="http://www.serif.com/" style="fill-rule:evenodd;clip-rule:evenodd;stroke-linecap:round;stroke-linejoin:round;stroke-miterlimit:1.5;"><rect x="0.501" y="0.499" width="298.994" height="298.998" style="fill:none;stroke:#000;stroke-width:1px;"/><rect x="0.501" y="0.499" width="298.994" height="298.998" style="fill:#fff;"/><path d="M17.775,121.777c86.877,0 157.411,70.533 157.411,157.411c-0,86.877 -70.534,157.41 -157.411,157.41c-86.877,-0 -157.41,-70.533 -157.41,-157.41c0,-86.878 70.533,-157.411 157.41,-157.411Zm0,31.939c69.25,-0 125.472,56.222 125.472,125.472c0,69.249 -56.222,125.471 -125.472,125.471c-69.25,0 -125.472,-56.222 -125.472,-125.471c0,-69.25 56.222,-125.472 125.472,-125.472Z" style="fill-opacity:0;stroke:#000;stroke-width:4.17px;"/></svg>