<?xml version="1.0" encoding="UTF-8" standalone="no"?><!DOCTYPE svg PUBLIC "-//W3C//DTD SVG 1.1//EN" "http://www.w3.org/Graphics/SVG/1.1/DTD/svg11.dtd"><svg width="100%" height="100%" viewBox="0 0 700 200" version="1.1" xmlns="http://www.w3.org/2000/svg" xmlns:xlink="http://www.w3.org/1999/xlink" xml:space="preserve" xmlns:serif="http://www.serif.com/" style="fill-rule:evenodd;clip-rule:evenodd;stroke-linejoin:round;stroke-miterlimit:2;"><rect x="0" y="0" width="700" height="200" style="fill:#fff;"/><rect x="0" y="20" width="100" height="100" style="fill:#553dcc;"/><rect x="100" y="20" width="100" height="100" style="fill:#853dcc;"/><rect x="200" y="20" width="100" height="100" style="fill:#b43dcc;"/><rect x="300" y="20" width="100" height="100" style="fill:#cc3db4;"/><rect x="400" y="20" width="100" height="100" style="fill:#cc3d85;"/><rect x="500" y="20" width="100" height="100" style="fill:#cc3d55;"/><rect x="600" y="20" width="100" height="100" style="fill:#cc553d;"/><g transform="matrix(0.999609,0,0,0.975916,-55.7987,-15.4367)"><text x="55.165px" y="169.754px" style="font-family:'ArialMT', 'Arial', sans-serif;font-size:14.583px;">H 250°</text><text x="55.165px" y="184.815px" style="font-family:'ArialMT', 'Arial', sans-serif;font-size:14.583px;">S 70%</text><g transform="matrix(14.5833,0,0,14.5833,98.1322,199.875)"></g><text x="55.165px" y="199.875px" style="font-family:'ArialMT', 'Arial', sans-serif;font-size:14.583px;">B 80%</text></g><g transform="matrix(0.999609,0,0,0.999609,44.2013,-20.1815)"><text x="55.165px" y="169.754px" style="font-family:'ArialMT', 'Arial', sans-serif;font-size:14.583px;">H 270°</text><text x="55.165px" y="184.815px" style="font-family:'ArialMT', 'Arial', sans-serif;font-size:14.583px;">S 70%</text><g transform="matrix(14.5833,0,0,14.5833,98.1322,199.875)"></g><text x="55.165px" y="199.875px" style="font-family:'ArialMT', 'Arial', sans-serif;font-size:14.583px;">B 80%</text></g><g transform="matrix(0.999609,0,0,0.975916,144.201,-15.4367)"><text x="55.165px" y="169.754px" style="font-family:'ArialMT', 'Arial', sans-serif;font-size:14.583px;">H 290°</text><text x="55.165px" y="184.815px" style="font-family:'ArialMT', 'Arial', sans-serif;font-size:14.583px;">S 70%</text><g transform="matrix(14.5833,0,0,14.5833,98.1322,199.875)"></g><text x="55.165px" y="199.875px" style="font-family:'ArialMT', 'Arial', sans-serif;font-size:14.583px;">B 80%</text></g><g transform="matrix(0.999609,0,0,0.975916,244.201,-15.4367)"><text x="55.165px" y="169.754px" style="font-family:'ArialMT', 'Arial', sans-serif;font-size:14.583px;">H 310°</text><text x="55.165px" y="184.815px" style="font-family:'ArialMT', 'Arial', sans-serif;font-size:14.583px;">S 70%</text><g transform="matrix(14.5833,0,0,14.5833,98.1322,199.875)"></g><text x="55.165px" y="199.875px" style="font-family:'ArialMT', 'Arial', sans-serif;font-size:14.583px;">B 80%</text></g><g transform="matrix(0.999609,0,0,0.975916,344.201,-15.4367)"><text x="55.165px" y="169.754px" style="font-family:'ArialMT', 'Arial', sans-serif;font-size:14.583px;">H 330°</text><text x="55.165px" y="184.815px" style="font-family:'ArialMT', 'Arial', sans-serif;font-size:14.583px;">S 70%</text><g transform="matrix(14.5833,0,0,14.5833,98.1322,199.875)"></g><text x="55.165px" y="199.875px" style="font-family:'ArialMT', 'Arial', sans-serif;font-size:14.583px;">B 80%</text></g><g transform="matrix(0.999609,0,0,0.975916,444.201,-15.4367)"><text x="55.165px" y="169.754px" style="font-family:'ArialMT', 'Arial', sans-serif;font-size:14.583px;">H 350°</text><text x="55.165px" y="184.815px" style="font-family:'ArialMT', 'Arial', sans-serif;font-size:14.583px;">S 70%</text><g transform="matrix(14.5833,0,0,14.5833,98.1322,199.875)"></g><text x="55.165px" y="199.875px" style="font-family:'ArialMT', 'Arial', sans-serif;font-size:14.583px;">B 80%</text></g><g transform="matrix(0.999609,0,0,0.975916,543.967,-15.4367)"><text x="55.165px" y="169.754px" style="font-family:'ArialMT', 'Arial', sans-serif;font-size:14.583px;">H 10°</text><text x="55.165px" y="184.815px" style="font-family:'ArialMT', 'Arial', sans-serif;font-size:14.583px;">S 70%</text><g transform="matrix(14.5833,0,0,14.5833,98.1322,199.875)"></g><text x="55.165px" y="199.875px" style="font-family:'ArialMT', 'Arial', sans-serif;font-size:14.583px;">B 80%</text></g></svg>