<?xml version="1.0" encoding="UTF-8" standalone="no"?>
<!DOCTYPE svg PUBLIC "-//W3C//DTD SVG 1.1//EN" "http://www.w3.org/Graphics/SVG/1.1/DTD/svg11.dtd">
<svg width="100%" height="100%" viewBox="0 0 300 300" version="1.1" xmlns="http://www.w3.org/2000/svg" xmlns:xlink="http://www.w3.org/1999/xlink" xml:space="preserve" xmlns:serif="http://www.serif.com/" style="fill-rule:evenodd;clip-rule:evenodd;stroke-linecap:round;stroke-linejoin:round;stroke-miterlimit:1.5;">
    <rect x="0.501" y="0.499" width="298.994" height="298.998" style="fill:white;stroke:black;stroke-width:1px;"/>
    <rect x="0.501" y="0.499" width="298.994" height="298.998" style="fill:rgb(235,235,235);fill-opacity:0;"/>
    <g transform="matrix(1,0,0,1,9.44,0)">
        <circle cx="80.558" cy="281.823" r="14.264" style="stroke:black;stroke-opacity:0;stroke-width:4.17px;"/>
    </g>
    <g transform="matrix(1,0,0,1,9.44,0)">
        <circle cx="120.558" cy="281.823" r="14.264" style="stroke:black;stroke-opacity:0;stroke-width:4.17px;"/>
    </g>
    <g transform="matrix(1,0,0,1,9.44,0)">
        <circle cx="160.558" cy="281.823" r="14.264" style="stroke:black;stroke-opacity:0;stroke-width:4.17px;"/>
    </g>
    <g transform="matrix(1,0,0,1,9.44,0)">
        <circle cx="200.558" cy="281.823" r="14.264" style="stroke:black;stroke-opacity:0;stroke-width:4.17px;"/>
    </g>
    <g transform="matrix(1,0,0,1,9.44,0)">
        <circle cx="179.558" cy="249.823" r="14.264" style="stroke:black;stroke-opacity:0;stroke-width:4.17px;"/>
    </g>
    <g transform="matrix(1,0,0,1,9.44,0)">
        <circle cx="160.558" cy="215.823" r="14.264" style="stroke:black;stroke-opacity:0;stroke-width:4.17px;"/>
    </g>
    <g transform="matrix(1,0,0,1,9.44,0)">
        <circle cx="120.558" cy="215.823" r="14.264" style="stroke:black;stroke-opacity:0;stroke-width:4.17px;"/>
    </g>
    <g transform="matrix(1,0,0,1,9.44,0)">
        <circle cx="139.558" cy="181.823" r="14.264" style="stroke:black;stroke-opacity:0;stroke-width:4.17px;"/>
    </g>
    <g transform="matrix(1,0,0,1,9.44,0)">
        <circle cx="140.558" cy="249.823" r="14.264" style="stroke:black;stroke-opacity:0;stroke-width:4.17px;"/>
    </g>
    <g transform="matrix(1,0,0,1,9.44,0)">
        <circle cx="100.558" cy="249.823" r="14.264" style="stroke:black;stroke-opacity:0;stroke-width:4.17px;"/>
    </g>
</svg>
